<svg data-v-423bf9ae="" xmlns="http://www.w3.org/2000/svg" viewBox="0 0 169.80267985533774 60" class="font"><!----><!----><!----><g data-v-423bf9ae="" id="b19d1dcf-1236-41ae-9377-8ee52ee69e1b" fill="#398E7B" transform="matrix(3.819223647142182,0,0,3.819223647142182,5.56950269015033e-7,-15.39147257612516)"><path d="M7.94 9.23L7.94 9.23L7.98 6.13L7.98 6.13Q7.97 6.03 7.88 6.03L7.88 6.03L7.88 6.03Q7.78 6.03 7.71 6.13L7.71 6.13L7.71 6.13Q7.03 7.84 5.99 10.84L5.99 10.84L5.99 10.84Q4.94 13.85 4.89 14L4.89 14L4.89 14Q4.84 14.15 4.62 14.37L4.62 14.37L4.62 14.37Q4.40 14.59 4.23 14.59L4.23 14.59L4.23 14.59Q4.06 14.59 4.06 14.32L4.06 14.32L4.06 14.32Q4.05 14.22 4.02 13.39L4.02 13.39L4.02 13.39Q3.99 12.56 3.93 11.69L3.93 11.69L3.93 11.69Q3.88 10.82 3.79 9.89L3.79 9.89L3.79 9.89Q3.70 8.96 3.53 8.36L3.53 8.36L3.53 8.36Q3.36 7.77 3.15 7.77L3.15 7.77L3.15 7.77Q2.79 7.77 1.09 13.51L1.09 13.51L1.09 13.51Q0.87 14.29 0.85 14.32L0.85 14.32L0.85 14.32Q0.80 14.50 0.59 14.64L0.59 14.64L0.59 14.64Q0.39 14.77 0.21 14.77L0.21 14.77L0.21 14.77Q0.06 14.77 0.06 14.55L0.06 14.55L0.06 14.55Q0.15 11.66 0.15 9.77L0.15 9.77L0.15 9.77Q0.15 6.20 0.04 4.97L0.04 4.97L0 4.51L0 4.51Q0 4.41 0.20 4.22L0.20 4.22L0.20 4.22Q0.39 4.03 0.56 4.03L0.56 4.03L0.56 4.03Q0.73 4.03 0.73 4.34L0.73 4.34L0.73 4.44L0.76 5.61L0.76 6.19L0.76 6.19Q0.76 11.52 0.69 12.64L0.69 12.64L0.69 12.64Q0.69 12.89 0.73 12.89L0.73 12.89L0.73 12.89Q0.77 12.89 1.90 9.47L1.90 9.47L1.90 9.47Q3.02 6.05 3.15 5.63L3.15 5.63L3.15 5.63Q3.28 5.21 3.47 4.99L3.47 4.99L3.47 4.99Q3.67 4.77 3.89 4.77L3.89 4.77L3.89 4.77Q4.21 4.77 4.42 6.61L4.42 6.61L4.42 6.61Q4.63 8.44 4.75 10.28L4.75 10.28L4.75 10.28Q4.87 12.11 4.94 12.11L4.94 12.11L4.94 12.11Q5.00 12.11 5.31 11.31L5.31 11.31L5.31 11.31Q5.61 10.51 6.01 9.38L6.01 9.38L6.01 9.38Q6.41 8.25 6.80 7.11L6.80 7.11L6.80 7.11Q7.77 4.40 7.87 4.45L7.87 4.45L7.87 4.45Q7.84 4.44 7.95 4.34L7.95 4.34L7.95 4.34Q8.29 4.06 8.50 4.03L8.50 4.03L8.50 4.03Q8.81 4.07 8.81 4.41L8.81 4.41L8.81 4.77L8.81 4.77Q8.81 5.82 8.85 6.45L8.85 6.45L8.85 6.45Q9.27 13.44 11.97 13.44L11.97 13.44L11.97 13.44Q12.19 13.44 12.38 13.31L12.38 13.31L12.38 13.31Q12.56 13.19 12.62 13.19L12.62 13.19L12.62 13.19Q12.68 13.19 12.77 13.27L12.77 13.27L12.77 13.27Q12.85 13.36 12.85 13.45L12.85 13.45L12.85 13.45Q12.85 13.82 12.09 14.31L12.09 14.31L12.09 14.31Q11.33 14.81 10.60 14.81L10.60 14.81L10.60 14.81Q7.94 14.81 7.94 9.23ZM16.46 12.33L16.46 12.33L16.41 12.73L16.41 12.73Q16.41 12.98 16.63 13.25L16.63 13.25L16.63 13.25Q16.84 13.52 17.14 13.52L17.14 13.52L17.14 13.52Q17.36 13.52 17.50 13.43L17.50 13.43L17.50 13.43Q17.81 13.22 17.88 13.14L17.88 13.14L17.88 13.14Q17.96 13.06 18.14 13.06L18.14 13.06L18.14 13.06Q18.31 13.06 18.31 13.19L18.31 13.19L18.31 13.19Q18.31 13.33 17.65 14.07L17.65 14.07L17.65 14.07Q17.44 14.31 17.04 14.57L17.04 14.57L17.04 14.57Q16.63 14.84 16.32 14.84L16.32 14.84L16.32 14.84Q16.00 14.84 15.84 14.73L15.84 14.73L15.84 14.73Q15.68 14.63 15.61 14.41L15.61 14.41L15.61 14.41Q15.53 14.10 15.53 13.65L15.53 13.65L15.53 13.65Q15.53 13.59 15.46 13.59L15.46 13.59L15.46 13.59Q15.39 13.59 15.13 13.87L15.13 13.87L15.13 13.87Q14.35 14.69 13.87 14.69L13.87 14.69L13.87 14.69Q13.38 14.69 13.13 14.43L13.13 14.43L13.13 14.43Q12.87 14.18 12.87 13.79L12.87 13.79L12.87 13.79Q12.87 13.10 13.23 12.48L13.23 12.48L13.23 12.48Q13.59 11.86 14.10 11.48L14.10 11.48L14.10 11.48Q15.22 10.65 15.83 10.65L15.83 10.65L15.83 10.65Q16.76 10.68 16.76 11.31L16.76 11.31L16.76 11.31Q16.76 11.54 16.56 11.75L16.56 11.75L16.56 11.75Q16.37 11.97 16.20 11.97L16.20 11.97L16.20 11.97Q16.03 11.97 15.74 11.68L15.74 11.68L15.74 11.68Q15.44 11.38 15.09 11.38L15.09 11.38L15.09 11.38Q14.74 11.38 14.52 11.67L14.52 11.67L14.52 11.67Q14.29 11.96 14.29 12.40L14.29 12.40L14.29 12.40Q14.29 13.13 15.06 13.13L15.06 13.13L15.06 13.13Q15.37 13.13 15.57 12.98L15.57 12.98L15.57 12.98Q15.78 12.82 15.86 12.64L15.86 12.64L15.86 12.64Q16.10 12.17 16.30 12.17L16.30 12.17L16.30 12.17Q16.46 12.17 16.46 12.33ZM18.97 6.19L18.97 6.19L18.97 6.19Q18.40 6.19 18.40 9.98L18.40 9.98L18.40 10.82L18.40 10.82Q18.76 9.90 19.07 8.78L19.07 8.78L19.07 8.78Q19.39 7.66 19.39 6.92L19.39 6.92L19.39 6.92Q19.39 6.19 18.97 6.19ZM18.54 13.44L18.54 13.44L18.54 13.44Q18.68 13.44 19.35 12.52L19.35 12.52L19.35 12.52Q20.02 11.59 20.20 11.58L20.20 11.58L20.20 11.58Q20.38 11.58 20.57 11.89L20.57 11.89L20.57 11.89Q20.75 12.19 20.92 12.56L20.92 12.56L20.92 12.56Q21.10 12.94 21.49 13.25L21.49 13.25L21.49 13.25Q21.88 13.57 22.27 13.57L22.27 13.57L22.27 13.57Q22.67 13.57 22.75 13.51L22.75 13.51L22.75 13.51Q22.83 13.45 22.88 13.45L22.88 13.45L22.88 13.45Q22.93 13.45 22.93 13.57L22.93 13.57L22.93 13.57Q22.92 13.85 22.48 14.24L22.48 14.24L22.48 14.24Q22.05 14.64 21.34 14.64L21.34 14.64L21.34 14.64Q20.13 14.64 19.66 13.26L19.66 13.26L19.66 13.26Q19.61 13.17 19.58 13.17L19.58 13.17L19.58 13.17Q19.54 13.17 19.47 13.23L19.47 13.23L19.47 13.23Q19.40 13.29 19.18 13.55L19.18 13.55L19.18 13.55Q18.96 13.82 18.73 14.10L18.73 14.10L18.73 14.10Q18.49 14.38 18.44 14.43L18.44 14.43L18.44 14.43Q18.38 14.49 18.23 14.49L18.23 14.49L18.23 14.49Q18.07 14.49 18.06 14.32L18.06 14.32L18.06 14.32Q17.93 13.06 17.93 11.68L17.93 11.68L17.93 11.68Q17.93 10.30 17.97 9.55L17.97 9.55L17.97 9.55Q18.00 8.79 18.12 7.60L18.12 7.60L18.12 7.60Q18.23 6.41 18.52 5.66L18.52 5.66L18.52 5.66Q18.80 4.90 19.24 4.90L19.24 4.90L19.24 4.90Q20.15 4.90 20.15 6.17L20.15 6.17L20.15 6.17Q20.15 7.27 19.56 8.92L19.56 8.92L19.56 8.92Q18.97 10.58 18.42 11.55L18.42 11.55L18.42 11.55Q18.48 13.44 18.54 13.44ZM26.10 12.33L26.10 12.33L26.04 12.73L26.04 12.73Q26.04 12.98 26.26 13.25L26.26 13.25L26.26 13.25Q26.47 13.52 26.77 13.52L26.77 13.52L26.77 13.52Q26.99 13.52 27.13 13.43L27.13 13.43L27.13 13.43Q27.44 13.22 27.52 13.14L27.52 13.14L27.52 13.14Q27.59 13.06 27.77 13.06L27.77 13.06L27.77 13.06Q27.94 13.06 27.94 13.19L27.94 13.19L27.94 13.19Q27.94 13.33 27.29 14.07L27.29 14.07L27.29 14.07Q27.08 14.31 26.67 14.57L26.67 14.57L26.67 14.57Q26.26 14.84 25.95 14.84L25.95 14.84L25.95 14.84Q25.63 14.84 25.47 14.73L25.47 14.73L25.47 14.73Q25.31 14.63 25.24 14.41L25.24 14.41L25.24 14.41Q25.16 14.10 25.16 13.65L25.16 13.65L25.16 13.65Q25.16 13.59 25.09 13.59L25.09 13.59L25.09 13.59Q25.02 13.59 24.77 13.87L24.77 13.87L24.77 13.87Q23.98 14.69 23.50 14.69L23.50 14.69L23.50 14.69Q23.02 14.69 22.76 14.43L22.76 14.43L22.76 14.43Q22.50 14.18 22.50 13.79L22.50 13.79L22.50 13.79Q22.50 13.10 22.86 12.48L22.86 12.48L22.86 12.48Q23.23 11.86 23.73 11.48L23.73 11.48L23.73 11.48Q24.85 10.65 25.47 10.65L25.47 10.65L25.47 10.65Q26.39 10.68 26.39 11.31L26.39 11.31L26.39 11.31Q26.39 11.54 26.19 11.75L26.19 11.75L26.19 11.75Q26.00 11.97 25.83 11.97L25.83 11.97L25.83 11.97Q25.66 11.97 25.37 11.68L25.37 11.68L25.37 11.68Q25.07 11.38 24.72 11.38L24.72 11.38L24.72 11.38Q24.37 11.38 24.15 11.67L24.15 11.67L24.15 11.67Q23.93 11.96 23.93 12.40L23.93 12.40L23.93 12.40Q23.93 13.13 24.70 13.13L24.70 13.13L24.70 13.13Q25.00 13.13 25.21 12.98L25.21 12.98L25.21 12.98Q25.41 12.82 25.49 12.64L25.49 12.64L25.49 12.64Q25.73 12.17 25.93 12.17L25.93 12.17L25.93 12.17Q26.10 12.17 26.10 12.33ZM27.66 12.29L27.66 12.29L27.29 12.32L27.29 12.32Q27.03 12.32 27.03 12.19L27.03 12.19L27.03 12.19Q27.03 12.00 27.53 11.45L27.53 11.45L27.53 11.45Q28.03 10.89 28.42 10.89L28.42 10.89L28.42 10.89Q28.59 10.89 28.72 10.99L28.72 10.99L28.72 10.99Q28.85 11.09 28.87 11.23L28.87 11.23L28.94 11.86L28.94 11.86Q28.98 11.91 29.02 11.91L29.02 11.91L29.02 11.91Q29.06 11.91 29.25 11.69L29.25 11.69L29.25 11.69Q29.83 11.00 30.30 11.00L30.30 11.00L30.30 11.00Q30.48 11.00 30.59 11.06L30.59 11.06L30.59 11.06Q30.70 11.12 30.85 11.28L30.85 11.28L30.85 11.28Q31.00 11.44 31.01 11.45L31.01 11.45L31.01 11.45Q31.11 11.41 31.21 11.41L31.21 11.41L31.21 11.41Q31.36 11.41 31.36 11.60L31.36 11.60L31.36 11.60Q31.36 11.79 30.81 12.30L30.81 12.30L30.81 12.30Q30.27 12.81 30.00 12.81L30.00 12.81L30.00 12.81Q29.74 12.81 29.55 12.57L29.55 12.57L29.55 12.57Q29.37 12.33 29.29 12.33L29.29 12.33L29.29 12.33Q28.97 12.33 28.97 12.67L28.97 12.67L28.97 12.67Q28.97 12.92 29.20 13.52L29.20 13.52L29.20 13.52Q29.43 14.13 29.43 14.24L29.43 14.24L29.43 14.24Q29.43 14.52 29.14 14.68L29.14 14.68L29.14 14.68Q28.85 14.84 28.51 14.84L28.51 14.84L28.51 14.84Q28.17 14.84 27.96 14.73L27.96 14.73L27.96 14.73Q27.75 14.62 27.75 14.42L27.75 14.42L28.14 12.73L28.14 12.73Q28.14 12.29 27.66 12.29ZM34.41 12.33L34.41 12.33L34.36 12.73L34.36 12.73Q34.36 12.98 34.57 13.25L34.57 13.25L34.57 13.25Q34.79 13.52 35.08 13.52L35.08 13.52L35.08 13.52Q35.31 13.52 35.45 13.43L35.45 13.43L35.45 13.43Q35.76 13.22 35.83 13.14L35.83 13.14L35.83 13.14Q35.91 13.06 36.09 13.06L36.09 13.06L36.09 13.06Q36.26 13.06 36.26 13.19L36.26 13.19L36.26 13.19Q36.26 13.33 35.60 14.07L35.60 14.07L35.60 14.07Q35.39 14.31 34.99 14.57L34.99 14.57L34.99 14.57Q34.58 14.84 34.27 14.84L34.27 14.84L34.27 14.84Q33.95 14.84 33.79 14.73L33.79 14.73L33.79 14.73Q33.63 14.63 33.56 14.41L33.56 14.41L33.56 14.41Q33.47 14.10 33.47 13.65L33.47 13.65L33.47 13.65Q33.47 13.59 33.40 13.59L33.40 13.59L33.40 13.59Q33.33 13.59 33.08 13.87L33.08 13.87L33.08 13.87Q32.30 14.69 31.82 14.69L31.82 14.69L31.82 14.69Q31.33 14.69 31.07 14.43L31.07 14.43L31.07 14.43Q30.81 14.18 30.81 13.79L30.81 13.79L30.81 13.79Q30.81 13.10 31.18 12.48L31.18 12.48L31.18 12.48Q31.54 11.86 32.05 11.48L32.05 11.48L32.05 11.48Q33.17 10.65 33.78 10.65L33.78 10.65L33.78 10.65Q34.71 10.68 34.71 11.31L34.71 11.31L34.71 11.31Q34.71 11.54 34.51 11.75L34.51 11.75L34.51 11.75Q34.31 11.97 34.15 11.97L34.15 11.97L34.15 11.97Q33.98 11.97 33.68 11.68L33.68 11.68L33.68 11.68Q33.39 11.38 33.04 11.38L33.04 11.38L33.04 11.38Q32.69 11.38 32.47 11.67L32.47 11.67L32.47 11.67Q32.24 11.96 32.24 12.40L32.24 12.40L32.24 12.40Q32.24 13.13 33.01 13.13L33.01 13.13L33.01 13.13Q33.32 13.13 33.52 12.98L33.52 12.98L33.52 12.98Q33.73 12.82 33.81 12.64L33.81 12.64L33.81 12.64Q34.05 12.17 34.24 12.17L34.24 12.17L34.24 12.17Q34.41 12.17 34.41 12.33ZM36.46 9.77L36.46 9.77L36.46 9.77Q36.25 9.53 36.25 9.18L36.25 9.18L36.25 9.18Q36.25 8.83 36.46 8.60L36.46 8.60L36.46 8.60Q36.68 8.36 37.00 8.36L37.00 8.36L37.00 8.36Q37.32 8.36 37.54 8.60L37.54 8.60L37.54 8.60Q37.76 8.83 37.76 9.18L37.76 9.18L37.76 9.18Q37.76 9.53 37.54 9.77L37.54 9.77L37.54 9.77Q37.32 10.01 37.00 10.01L37.00 10.01L37.00 10.01Q36.68 10.01 36.46 9.77ZM36.61 18.23L36.61 18.23L36.61 18.23Q36.88 18.23 36.88 17.39L36.88 17.39L36.88 17.39Q36.88 16.55 36.79 14.45L36.79 14.45L36.79 14.45Q36.29 14.49 35.88 14.92L35.88 14.92L35.88 14.92Q35.48 15.34 35.48 15.99L35.48 15.99L35.48 15.99Q35.48 16.65 35.80 17.44L35.80 17.44L35.80 17.44Q36.12 18.23 36.61 18.23ZM36.74 11.98L36.74 11.83L36.74 11.83Q36.74 11.75 36.69 11.75L36.69 11.75L36.69 11.75Q36.64 11.75 36.54 11.87L36.54 11.87L36.54 11.87Q36.44 12.00 36.30 12.00L36.30 12.00L36.30 12.00Q36.15 12.00 36.15 11.90L36.15 11.90L36.15 11.90Q36.15 11.80 36.27 11.65L36.27 11.65L36.27 11.65Q36.40 11.51 36.53 11.19L36.53 11.19L36.53 11.19Q36.67 10.86 36.76 10.67L36.76 10.67L36.76 10.67Q36.86 10.47 37.00 10.47L37.00 10.47L37.00 10.47Q37.13 10.47 37.21 10.61L37.21 10.61L37.21 10.61Q37.30 10.74 37.30 10.84L37.30 10.84L37.30 10.84Q37.30 10.93 37.23 11.16L37.23 11.16L37.23 11.16Q37.17 11.38 37.17 11.58L37.17 11.58L37.17 11.58Q37.17 12.98 37.18 13.57L37.18 13.57L37.18 13.57Q37.70 13.38 38.10 13.38L38.10 13.38L38.10 13.38Q38.50 13.38 38.73 13.65L38.73 13.65L38.73 13.65Q38.96 13.92 38.96 14.24L38.96 14.24L38.96 14.24Q38.96 14.57 38.62 15.00L38.62 15.00L38.62 15.00Q38.28 15.43 38.12 15.43L38.12 15.43L38.12 15.43Q37.95 15.43 37.88 15.25L37.88 15.25L37.88 15.25Q37.84 15.19 37.77 15.06L37.77 15.06L37.77 15.06Q37.69 14.94 37.65 14.89L37.65 14.89L37.65 14.89Q37.62 14.84 37.56 14.76L37.56 14.76L37.56 14.76Q37.49 14.67 37.45 14.63L37.45 14.63L37.45 14.63Q37.32 14.53 37.23 14.49L37.23 14.49L37.23 14.49Q37.34 17.89 37.34 18.44L37.34 18.44L37.34 18.44Q37.34 19.74 36.25 19.74L36.25 19.74L36.25 19.74Q35.69 19.74 35.20 19.12L35.20 19.12L35.20 19.12Q34.72 18.49 34.72 17.36L34.72 17.36L34.72 17.36Q34.72 16.23 35.29 15.22L35.29 15.22L35.29 15.22Q35.87 14.22 36.76 13.75L36.76 13.75L36.76 13.75Q36.74 13.16 36.74 11.98L36.74 11.98ZM42.62 12.33L42.62 12.33L42.56 12.73L42.56 12.73Q42.56 12.98 42.78 13.25L42.78 13.25L42.78 13.25Q42.99 13.52 43.29 13.52L43.29 13.52L43.29 13.52Q43.51 13.52 43.65 13.43L43.65 13.43L43.65 13.43Q43.96 13.22 44.04 13.14L44.04 13.14L44.04 13.14Q44.11 13.06 44.29 13.06L44.29 13.06L44.29 13.06Q44.46 13.06 44.46 13.19L44.46 13.19L44.46 13.19Q44.46 13.33 43.81 14.07L43.81 14.07L43.81 14.07Q43.60 14.31 43.19 14.57L43.19 14.57L43.19 14.57Q42.78 14.84 42.47 14.84L42.47 14.84L42.47 14.84Q42.15 14.84 41.99 14.73L41.99 14.73L41.99 14.73Q41.83 14.63 41.76 14.41L41.76 14.41L41.76 14.41Q41.68 14.10 41.68 13.65L41.68 13.65L41.68 13.65Q41.68 13.59 41.61 13.59L41.61 13.59L41.61 13.59Q41.54 13.59 41.29 13.87L41.29 13.87L41.29 13.87Q40.50 14.69 40.02 14.69L40.02 14.69L40.02 14.69Q39.54 14.69 39.28 14.43L39.28 14.43L39.28 14.43Q39.02 14.18 39.02 13.79L39.02 13.79L39.02 13.79Q39.02 13.10 39.38 12.48L39.38 12.48L39.38 12.48Q39.75 11.86 40.25 11.48L40.25 11.48L40.25 11.48Q41.37 10.65 41.99 10.65L41.99 10.65L41.99 10.65Q42.91 10.68 42.91 11.31L42.91 11.31L42.91 11.31Q42.91 11.54 42.71 11.75L42.71 11.75L42.71 11.75Q42.52 11.97 42.35 11.97L42.35 11.97L42.35 11.97Q42.18 11.97 41.89 11.68L41.89 11.68L41.89 11.68Q41.59 11.38 41.24 11.38L41.24 11.38L41.24 11.38Q40.89 11.38 40.67 11.67L40.67 11.67L40.67 11.67Q40.45 11.96 40.45 12.40L40.45 12.40L40.45 12.40Q40.45 13.13 41.22 13.13L41.22 13.13L41.22 13.13Q41.52 13.13 41.73 12.98L41.73 12.98L41.73 12.98Q41.93 12.82 42.01 12.64L42.01 12.64L42.01 12.64Q42.25 12.17 42.45 12.17L42.45 12.17L42.45 12.17Q42.62 12.17 42.62 12.33Z"></path></g><!----><!----></svg>